PathFileType	4	(X/Y/Z)	markers
DataRate	CameraRate	NumFrames	NumMarkers	Units	OrigDataRate	OrigDataStartFrame	OrigNumFrames
200	200	6	49	mm	200	55	219
Frame#	Time	RASI			LASI			RPSI			LPSI			RTH1			RTH2			RTH3			RTH4			RLFC			RMFC			RTB1			RTB2			RTB3			RTB4			RLMAL			RMMAL			RCAL			RTOE			RMT5			LTH1			LTH2			LTH3			LTH4			LLFC			LMFC			LTB1			LTB2			LTB3			LTB4			LLMAL			LMMAL			LCAL			LTOE			LMT5			C7			T10			CLAV			RACR			LACR			RLEL			RFAradius			LLEL			LFAradius			RHJC			LHJC			RKJC			LKJC			RAJC			LAJC		
		X1	Y1	Z1	X2	Y2	Z2	X3	Y3	Z3	X4	Y4	Z4	X5	Y5	Z5	X6	Y6	Z6	X7	Y7	Z7	X8	Y8	Z8	X9	Y9	Z9	X10	Y10	Z10	X11	Y11	Z11	X12	Y12	Z12	X13	Y13	Z13	X14	Y14	Z14	X15	Y15	Z15	X16	Y16	Z16	X17	Y17	Z17	X18	Y18	Z18	X19	Y19	Z19	X20	Y20	Z20	X21	Y21	Z21	X22	Y22	Z22	X23	Y23	Z23	X24	Y24	Z24	X25	Y25	Z25	X26	Y26	Z26	X27	Y27	Z27	X28	Y28	Z28	X29	Y29	Z29	X30	Y30	Z30	X31	Y31	Z31	X32	Y32	Z32	X33	Y33	Z33	X34	Y34	Z34	X35	Y35	Z35	X36	Y36	Z36	X37	Y37	Z37	X38	Y38	Z38	X39	Y39	Z39	X40	Y40	Z40	X41	Y41	Z41	X42	Y42	Z42	X43	Y43	Z43	X44	Y44	Z44	X45	Y45	Z45	X46	Y46	Z46	X47	Y47	Z47	X48	Y48	Z48	X49	Y49	Z49
55	0.270000	696.568694	1021.970022	-1485.178072	699.517296	1025.254630	-1723.115323	533.298608	1059.899784	-1559.117907	532.215151	1059.713782	-1649.162233	636.072252	772.718730	-1416.504892	692.112537	758.881967	-1447.575103	672.463973	659.798449	-1445.855272	629.267837	665.816063	-1420.717911	594.014542	549.050405	-1424.784019	589.745044	512.148012	-1539.799824	555.700058	429.918725	-1388.414897	600.020058	425.151592	-1410.489665	595.861387	317.885558	-1414.932124	538.767305	328.102458	-1385.144721	525.604961	128.932181	-1396.694102	548.832100	130.997806	-1495.776495	459.363606	90.216300	-1449.766594	678.482167	65.842296	-1467.702090	645.328288	58.441881	-1374.145827	668.204851	771.420042	-1792.217334	701.114021	770.595757	-1755.153604	692.191516	668.683771	-1743.367509	649.258597	665.981196	-1791.795670	597.395300	532.139782	-1800.881636	567.147121	517.217412	-1678.351741	581.227474	441.760448	-1831.496733	619.049954	434.808905	-1802.146058	605.195918	333.868077	-1795.218627	554.514232	337.153821	-1835.798401	539.879301	124.501856	-1807.633821	533.145787	127.538525	-1709.916203	452.878706	87.184117	-1766.539029	670.343892	69.601162	-1723.241150	644.061601	57.997033	-1819.511292	530.728894	1559.634220	-1613.989981	489.202047	1347.044586	-1609.819283	644.951642	1501.753290	-1586.462977	542.875819	1564.244091	-1482.106793	536.500293	1560.576913	-1738.846412	548.598275	1500.855503	-1168.365049	610.785618	1556.304206	-915.002394	582.082567	1482.037367	-2053.699732	679.300333	1540.525699	-2294.574342	630.042357	952.860778	-1520.118506	632.169331	955.230130	-1691.754580	591.879793	530.599208	-1482.291922	582.271210	524.678597	-1739.616688	537.218531	129.964993	-1446.235298	536.512544	126.020191	-1758.775012
56	0.275000	696.441412	1021.923146	-1485.164929	699.363691	1025.212881	-1723.074292	533.468820	1059.810334	-1559.098431	532.356069	1059.672895	-1649.182181	636.017438	772.698995	-1416.498574	692.058316	758.796474	-1447.566638	672.459386	659.780622	-1445.851189	629.267826	665.816081	-1420.717911	593.994267	548.959843	-1424.794826	589.705001	512.130410	-1539.805124	555.616260	429.856787	-1388.347245	600.065057	425.188580	-1410.442803	595.910047	317.941602	-1414.909757	538.811461	328.129478	-1385.155671	525.565081	128.891473	-1396.711068	548.857688	131.029802	-1495.797776	459.309638	90.269231	-1449.771792	678.479992	65.812797	-1467.720607	645.315487	58.421915	-1374.160755	668.194684	771.439962	-1792.217954	701.208163	770.606610	-1755.118745	692.035127	668.707549	-1743.288822	649.208920	666.011728	-1791.832938	597.427522	532.183919	-1800.880242	567.160470	517.203579	-1678.396014	581.275296	441.789340	-1831.534599	618.984304	434.776637	-1802.145908	605.173337	333.989230	-1795.260968	554.367337	337.106109	-1835.800036	539.884732	124.543007	-1807.626169	533.213287	127.478279	-1709.948167	452.901247	87.138850	-1766.627283	670.382110	69.658842	-1723.220388	644.067352	58.006681	-1819.515248	530.801288	1559.623001	-1613.991178	489.198489	1346.851010	-1609.815954	645.018806	1501.810646	-1586.455267	542.960618	1564.277108	-1482.123992	536.553655	1560.594412	-1738.846888	548.651504	1500.850466	-1168.482855	610.880099	1556.338138	-914.997516	582.087201	1482.012895	-2053.775770	679.312895	1540.481819	-2294.582366	629.964455	952.824517	-1520.094128	632.072463	955.197592	-1691.711811	591.849634	530.545126	-1482.299975	582.293996	524.693749	-1739.638128	537.211384	129.960638	-1446.254422	536.549010	126.010643	-1758.787168
57	0.280000	696.335353	1021.871996	-1485.114540	699.339417	1025.177282	-1723.051183	533.233531	1059.892532	-1559.240003	532.331022	1059.683926	-1649.274447	635.925732	772.695262	-1416.454171	692.016958	758.872109	-1447.567880	672.450866	659.795643	-1445.839006	629.346302	665.805300	-1420.687305	593.958489	548.999438	-1424.793585	589.765832	512.126876	-1539.837277	555.628379	429.831211	-1388.381555	599.966154	425.147682	-1410.451768	595.853362	317.920328	-1414.927416	538.778752	328.131700	-1385.180906	525.548503	128.932401	-1396.687091	548.840449	131.001728	-1495.778040	459.379964	90.294920	-1449.765644	678.512414	65.833710	-1467.734455	645.291877	58.407412	-1374.163713	668.160779	771.440636	-1792.146618	701.007580	770.546398	-1755.116182	692.073054	668.692204	-1743.313954	649.214317	666.013664	-1791.842512	597.437500	532.173888	-1800.852652	567.128542	517.233421	-1678.353639	581.203510	441.800697	-1831.498024	619.062037	434.788989	-1802.145434	605.207151	333.867746	-1795.212800	554.488493	337.157214	-1835.759900	539.924471	124.515414	-1807.669580	533.211134	127.560931	-1709.934130	452.866348	87.236474	-1766.627769	670.400665	69.585525	-1723.208285	644.026610	57.984066	-1819.536908	530.902822	1559.650700	-1614.100464	489.282912	1347.046523	-1609.877308	644.983591	1501.759447	-1586.450805	543.045413	1564.317277	-1482.139119	536.539414	1560.597437	-1738.839978	548.581973	1500.882604	-1168.478226	610.905672	1556.313218	-915.033912	582.095933	1482.027535	-2053.778876	679.326424	1540.558699	-2294.586698	629.819380	952.800223	-1520.076040	631.986362	955.184491	-1691.711653	591.862161	530.563157	-1482.315431	582.283021	524.703654	-1739.603146	537.194476	129.967064	-1446.232566	536.567803	126.038172	-1758.801855
58	0.285000	696.422544	1021.980714	-1485.190446	699.386883	1025.223148	-1723.090520	533.335908	1059.904173	-1559.154991	532.316373	1059.681693	-1649.193333	635.974089	772.667042	-1416.456735	692.014632	758.829477	-1447.528164	672.474943	659.771728	-1445.837891	629.272820	665.829859	-1420.645604	593.944628	549.067195	-1424.815373	589.698082	512.148023	-1539.804120	555.576709	429.837872	-1388.389353	600.011515	425.147656	-1410.465414	595.912616	317.967979	-1414.890703	538.826604	328.140228	-1385.146198	525.578618	128.909333	-1396.687698	548.876240	131.044398	-1495.817610	459.277854	90.251782	-1449.769694	678.484846	65.866467	-1467.740996	645.310516	58.438857	-1374.214524	668.120442	771.408773	-1792.182042	701.081295	770.553315	-1755.116639	692.059363	668.676707	-1743.321463	649.201231	665.992070	-1791.849822	597.392762	532.180409	-1800.871070	567.154772	517.225834	-1678.372980	581.233992	441.783680	-1831.459110	619.115598	434.841181	-1802.146207	605.161573	334.030155	-1795.249422	554.385459	337.109098	-1835.761042	539.939402	124.564026	-1807.646400	533.192914	127.468729	-1709.916964	452.889465	87.187875	-1766.570452	670.404962	69.628492	-1723.245938	644.073978	57.961335	-1819.457194	530.831314	1559.613236	-1614.031042	489.281522	1347.065571	-1609.815333	644.995240	1501.695958	-1586.453739	542.985944	1564.289479	-1482.145774	536.644743	1560.608873	-1738.857196	548.648805	1500.850228	-1168.453389	610.881728	1556.354119	-915.081426	582.050432	1481.991746	-2053.766126	679.336329	1540.555984	-2294.573583	629.931879	952.881912	-1520.116284	632.070234	955.220874	-1691.727844	591.821355	530.607609	-1482.309746	582.273767	524.703121	-1739.622025	537.227429	129.976866	-1446.252654	536.566158	126.016378	-1758.781682
59	0.290000	696.414474	1021.932690	-1485.151893	699.406294	1025.244426	-1723.101417	533.216386	1059.926222	-1559.125651	532.335330	1059.689559	-1649.226848	635.982723	772.757760	-1416.500842	691.962716	758.852091	-1447.562029	672.458000	659.716111	-1445.792425	629.284207	665.817660	-1420.609479	593.853492	549.050147	-1424.779759	589.661703	512.112302	-1539.742908	555.580532	429.871855	-1388.376728	600.002065	425.162079	-1410.465716	595.946283	317.992536	-1414.925664	538.762649	328.101688	-1385.216482	525.596133	128.941058	-1396.666649	548.829492	131.009485	-1495.776324	459.348951	90.270398	-1449.802075	678.486448	65.797776	-1467.689972	645.307499	58.433936	-1374.172090	668.043012	771.343160	-1792.109101	701.124211	770.619367	-1755.118885	692.117110	668.744423	-1743.336620	649.189943	666.004225	-1791.800258	597.410819	532.148260	-1800.852389	567.144396	517.191359	-1678.389096	581.179720	441.731446	-1831.458865	618.996389	434.756719	-1802.145285	605.269755	333.927284	-1795.249299	554.397938	337.088884	-1835.760371	539.919292	124.542393	-1807.628831	533.191119	127.496915	-1709.930526	452.798474	87.104160	-1766.596506	670.398061	69.619520	-1723.279352	644.013459	57.983503	-1819.506585	530.869749	1559.607837	-1613.998628	489.282428	1347.074797	-1609.807898	645.050690	1501.780480	-1586.453609	543.073987	1564.292266	-1482.142153	536.551767	1560.600561	-1738.829615	548.675034	1500.901570	-1168.437936	610.965552	1556.347598	-915.072563	582.066786	1482.037075	-2053.746008	679.317024	1540.541131	-2294.569959	629.903965	952.838496	-1520.114158	632.062105	955.227406	-1691.758276	591.757597	530.581225	-1482.261333	582.277607	524.669809	-1739.620742	537.212812	129.975271	-1446.221487	536.555206	126.019654	-1758.779679
60	0.295000	696.505159	1021.971698	-1485.152923	699.425541	1025.240980	-1723.120338	533.102510	1059.987759	-1559.218638	532.260194	1059.712682	-1649.201556	635.884553	772.706082	-1416.452684	691.956269	758.804273	-1447.558482	672.423098	659.773005	-1445.824410	629.115012	665.783739	-1420.703794	593.870866	549.063680	-1424.791015	589.688276	512.122581	-1539.798738	555.496158	429.821902	-1388.319703	600.012289	425.236622	-1410.471159	595.853254	317.920288	-1414.927503	538.807184	328.155544	-1385.117249	525.568295	128.891382	-1396.653503	548.808447	130.972631	-1495.771909	459.302795	90.245229	-1449.793541	678.494506	65.843811	-1467.732124	645.337795	58.447622	-1374.205732	668.096906	771.414231	-1792.146257	701.028030	770.550302	-1755.080866	692.073295	668.736810	-1743.259718	649.213847	665.991294	-1791.810715	597.415379	532.183956	-1800.879673	567.112292	517.210269	-1678.345465	581.227483	441.760435	-1831.496733	619.127681	434.821263	-1802.145584	605.133173	334.010223	-1795.204192	554.653701	337.253366	-1835.836440	539.940415	124.525323	-1807.641038	533.178703	127.488412	-1709.897390	452.844995	87.108525	-1766.595503	670.416672	69.629275	-1723.228995	644.052415	58.009496	-1819.495223	530.946100	1559.600654	-1613.993573	489.213882	1346.924945	-1609.871313	645.065408	1501.782605	-1586.487980	543.052691	1564.321500	-1482.182807	536.642167	1560.616790	-1738.827096	548.627395	1500.920513	-1168.426488	611.089312	1556.374465	-915.040546	582.063339	1482.063987	-2053.763459	679.331295	1540.531079	-2294.570185	629.951396	952.870641	-1520.085969	632.057992	955.228913	-1691.741986	591.779571	530.593131	-1482.294876	582.263835	524.697112	-1739.612569	537.188371	129.932007	-1446.212706	536.559559	126.006867	-1758.769214
